<?xml version="1.0" standalone="no"?>
<!DOCTYPE svg PUBLIC "-//W3C//DTD SVG 20010904//EN"
 "http://www.w3.org/TR/2001/REC-SVG-20010904/DTD/svg10.dtd">
<svg version="1.0" xmlns="http://www.w3.org/2000/svg"
 width="1048.000000pt" height="570.000000pt" viewBox="0 0 1048.000000 570.000000"
 preserveAspectRatio="xMidYMid meet">
<metadata>
Created by potrace 1.16, written by Peter Selinger 2001-2019
</metadata>
<g transform="translate(0.000000,570.000000) scale(0.100000,-0.100000)"
fill="#000000" stroke="none">
<path d="M3420 5689 c-97 -18 -150 -33 -150 -42 0 -6 -3 -8 -6 -4 -4 3 -19 0
-33 -8 -19 -9 -46 -12 -88 -8 -35 3 -84 0 -114 -7 -57 -13 -167 -60 -209 -88
-14 -9 -29 -17 -35 -17 -5 -1 -9 -7 -7 -14 1 -7 -2 -10 -8 -6 -12 7 -106 -56
-195 -131 -82 -70 -185 -189 -227 -264 -18 -30 -35 -58 -40 -61 -11 -7 64
-116 104 -151 l31 -27 -31 -33 c-17 -18 -38 -42 -47 -53 l-15 -20 -15 20 c-45
59 -77 87 -85 75 -5 -7 -15 -10 -25 -6 -16 6 -17 -5 -14 -131 l4 -138 -49 -63
c-26 -35 -52 -60 -56 -55 -12 11 -30 116 -32 182 -1 54 -2 53 -8 -19 -5 -49
-21 -113 -47 -185 -47 -127 -50 -129 -213 -208 -67 -32 -125 -52 -160 -57
l-55 -6 87 -8 c47 -5 123 -7 167 -5 45 2 81 4 81 4 0 0 -9 -27 -19 -60 -36
-114 -140 -375 -177 -446 -44 -83 -113 -162 -183 -210 -28 -19 -51 -37 -51
-41 -1 -37 208 43 278 105 26 24 27 22 6 -34 -33 -94 -47 -185 -46 -309 0
-148 21 -240 82 -364 40 -82 103 -166 115 -155 3 4 -3 38 -14 75 -24 82 -41
182 -41 244 l1 45 19 -53 c31 -88 99 -179 178 -242 l23 -19 -30 -76 c-51 -126
-139 -247 -226 -312 -27 -20 -28 -22 -9 -23 38 0 183 80 242 134 l57 54 0
-157 c0 -121 4 -168 18 -210 9 -30 18 -68 18 -85 1 -19 3 -24 6 -12 4 15 8 13
25 -15 45 -75 104 -141 178 -200 l79 -62 4 -96 c2 -53 3 -255 3 -449 -1 -207
2 -339 7 -320 5 18 14 39 20 47 9 12 9 13 0 7 -10 -6 -13 72 -13 373 0 210 3
381 8 381 4 0 60 -51 124 -113 79 -75 124 -127 138 -157 11 -25 18 -37 15 -27
-3 10 -6 71 -7 135 l-2 117 -3 -95 -3 -95 -139 134 -139 133 16 67 c46 206
215 404 352 413 8 1 21 8 28 17 8 9 11 11 8 5 -3 -7 1 -14 9 -17 9 -4 12 -1 9
8 -3 7 2 15 13 17 14 3 10 8 -17 22 -137 72 -233 197 -276 360 -14 49 -23 66
-35 66 -10 0 -25 7 -33 16 -9 8 -16 11 -16 6 0 -6 12 -19 27 -30 l27 -19 -66
-12 c-61 -10 -188 -15 -188 -7 0 2 11 28 24 57 13 30 31 75 40 100 15 42 19
45 46 41 17 -2 30 -7 30 -11 0 -3 18 -7 40 -9 27 -2 42 2 46 12 7 17 -20 123
-52 203 -24 58 -24 66 -13 125 7 35 13 65 15 66 1 2 24 -12 50 -32 52 -40 66
-40 40 -2 -9 14 -16 32 -16 39 0 14 64 106 82 118 5 3 43 -1 84 -9 66 -13 75
-18 73 -36 -3 -43 0 -48 26 -42 19 5 32 0 51 -19 14 -14 22 -30 19 -35 -4 -6
3 -25 14 -44 12 -18 21 -40 21 -49 0 -18 24 -29 45 -21 9 4 15 20 15 43 0 27
3 32 10 21 7 -11 10 -11 10 -2 0 7 5 10 10 7 9 -6 14 8 11 28 0 4 3 7 8 7 5 0
13 -30 18 -67 l10 -68 2 92 1 93 25 -10 c19 -7 25 -6 25 4 0 7 -11 23 -25 36
-28 27 -32 40 -10 40 21 0 19 16 -2 23 -237 71 -398 108 -448 103 -49 -6 -62
-15 -96 -67 -17 -27 -33 -48 -35 -46 -2 1 3 61 11 132 22 198 36 554 29 707
l-7 137 34 33 c19 18 46 52 61 76 15 23 32 42 37 42 5 0 24 -33 43 -72 18 -40
59 -125 92 -188 32 -63 67 -132 78 -153 10 -21 23 -35 28 -32 6 4 10 8 10 11
0 3 -5 2 -12 -2 -8 -5 -9 -2 -5 10 4 10 7 27 8 39 0 21 1 21 10 2 7 -15 8 -12
4 15 -4 25 -2 31 5 20 5 -8 10 -25 10 -37 0 -13 4 -23 9 -23 15 0 23 -70 10
-86 -11 -13 -14 -12 -26 10 -8 14 -16 26 -19 26 -14 0 132 -250 247 -420 117
-174 284 -374 305 -366 9 4 12 2 8 -5 -7 -12 53 -68 74 -69 6 0 12 -4 12 -8 0
-12 90 -75 97 -69 2 3 -9 13 -26 21 -17 9 -30 22 -28 29 1 6 -5 11 -13 9 -8
-2 -12 0 -8 4 4 4 -23 39 -60 78 -85 90 -165 190 -230 286 -60 91 -176 299
-170 305 2 3 29 -24 58 -60 116 -141 396 -363 544 -432 35 -17 46 -27 42 -39
-5 -12 -1 -14 16 -9 22 8 22 -1 3 -49 -7 -16 -3 -15 29 7 36 24 40 24 79 12
23 -8 68 -21 100 -30 44 -12 57 -20 53 -31 -4 -10 -2 -13 7 -7 30 18 48 12 72
-27 39 -63 69 -49 99 44 6 18 7 18 27 0 25 -23 22 -22 42 -5 15 12 17 11 17
-5 0 -13 6 -8 17 14 20 42 32 27 34 -43 1 -40 3 -45 9 -25 11 35 12 129 1 168
-8 28 -7 32 8 32 21 0 111 -66 111 -81 0 -5 -9 -29 -20 -51 l-20 -42 29 28 28
27 6 -23 c8 -33 12 -232 5 -244 -4 -5 -9 -27 -13 -49 -23 -121 -107 -307 -188
-412 -26 -35 -47 -65 -46 -69 0 -3 -3 -9 -7 -12 -4 -4 -3 0 1 8 8 13 7 13 -8
1 -9 -7 -17 -17 -17 -22 0 -15 33 -9 95 17 105 45 98 48 93 -42 -3 -63 -10
-93 -36 -148 -87 -186 -282 -408 -497 -566 -97 -72 -101 -73 -166 -66 -106 11
-203 62 -302 161 -68 66 -121 146 -202 300 -31 61 -61 111 -66 112 -5 1 -5 -1
1 -4 5 -2 10 -14 10 -27 0 -12 11 -38 25 -58 15 -22 21 -39 15 -43 -6 -3 -10
-11 -10 -17 0 -6 7 -5 17 3 11 10 14 10 9 2 -4 -8 -2 -13 4 -13 6 0 9 -4 6 -9
-3 -5 1 -14 10 -22 8 -7 34 -44 56 -83 45 -77 159 -198 229 -242 62 -39 166
-74 222 -74 53 0 90 21 200 112 33 26 63 45 68 42 5 -3 8 -2 7 3 -2 4 2 10 7
11 19 7 35 24 29 33 -3 5 1 6 8 4 13 -5 63 38 63 53 0 4 3 6 7 5 9 -3 73 75
73 91 1 6 6 10 13 9 7 -2 12 4 12 13 0 8 5 12 10 9 6 -4 10 -3 9 2 -4 15 13
43 22 37 5 -3 6 2 3 10 -3 9 -1 16 5 16 6 0 19 16 28 35 9 19 20 32 25 29 4
-3 8 4 8 16 0 12 5 18 10 15 6 -3 10 3 10 14 0 12 5 21 11 21 5 0 7 5 4 10 -3
6 -1 10 4 10 6 0 10 3 9 8 -1 4 2 20 7 35 6 22 10 26 17 15 6 -9 7 -5 3 11 -4
13 -3 21 2 18 5 -3 9 2 10 11 4 41 15 112 22 138 5 22 13 29 32 29 l24 0 6
-260 c4 -143 11 -275 17 -294 6 -19 9 -37 7 -41 -3 -5 3 -18 14 -31 l18 -23
12 36 c7 20 14 49 17 65 3 15 14 61 24 102 11 40 17 77 14 82 -3 5 -1 9 5 9 6
0 8 6 5 13 -3 8 4 36 14 63 18 45 30 96 36 157 2 13 8 32 14 43 11 19 11 19
13 -1 4 -56 8 -82 17 -105 9 -23 11 -21 27 35 9 33 19 67 22 75 4 8 7 28 8 43
3 34 13 46 25 28 6 -11 9 -11 11 2 6 24 120 -33 188 -95 30 -26 59 -48 63 -48
4 0 8 -7 8 -16 0 -8 4 -12 10 -9 6 3 7 -1 4 -10 -5 -12 -2 -16 12 -13 11 2 18
-2 17 -9 -2 -6 13 -29 33 -50 19 -21 41 -45 49 -54 8 -9 15 -23 15 -33 0 -9 4
-15 9 -11 6 3 8 -6 5 -22 -3 -15 -2 -24 2 -20 14 14 45 -39 73 -127 47 -149
47 -150 9 -181 l-33 -27 38 20 c34 20 37 20 37 4 0 -69 100 -369 188 -562 67
-146 131 -273 132 -258 0 3 -44 102 -98 220 -126 272 -135 300 -130 393 3 65
9 85 56 177 31 61 89 150 142 218 106 135 178 270 187 350 6 51 7 53 15 25 33
-119 45 -374 22 -475 -13 -58 24 13 57 108 32 93 33 103 33 247 0 128 -3 163
-23 235 -31 110 -75 211 -144 332 -55 97 -90 168 -128 256 l-20 46 41 -46 c55
-64 117 -102 213 -134 166 -54 248 -116 307 -234 28 -55 43 -126 51 -240 3
-42 31 87 36 165 17 267 -80 426 -383 627 -257 171 -371 311 -463 571 -17 49
-31 91 -31 94 0 3 19 2 43 -1 28 -4 67 0 117 13 78 20 184 63 194 79 3 5 -32
16 -77 26 -182 38 -282 86 -351 169 -19 23 -33 43 -32 45 2 1 30 -9 62 -23 73
-32 171 -42 255 -26 73 15 254 92 280 119 17 19 16 19 -26 14 -61 -6 -226 15
-295 38 -152 51 -283 165 -348 302 -22 45 -46 110 -52 143 -27 140 -105 304
-210 444 -103 136 -340 345 -370 326 -6 -4 -9 -1 -8 6 4 16 -155 97 -257 131
-219 74 -398 98 -703 97 -120 -1 -237 -5 -262 -10z m646 -359 c25 -214 80
-456 129 -573 8 -20 15 -39 15 -42 0 -6 -100 48 -140 76 -14 9 -30 34 -37 56
-25 85 -51 180 -57 206 -4 18 -13 27 -26 27 -24 0 -39 -50 -43 -144 -2 -73 -2
-73 -77 -38 -41 20 -43 33 -22 152 24 138 99 326 189 473 l38 62 7 -60 c4 -33
15 -121 24 -195z m-1894 -949 c9 -8 -62 -112 -86 -125 -11 -6 -27 -19 -37 -28
-10 -10 -31 -20 -46 -24 -16 -4 -32 -10 -38 -14 -20 -16 -131 -31 -198 -28
l-68 3 98 43 c94 42 226 123 286 176 25 22 32 23 55 13 15 -6 30 -13 34 -16z
m103 -30 c49 -17 50 -19 49 -57 -1 -45 -39 -220 -61 -281 -14 -39 -19 -43 -50
-43 -19 0 -68 11 -109 25 -41 14 -81 25 -89 25 -9 0 -12 6 -9 15 4 8 11 12 17
8 5 -3 7 -2 4 4 -7 12 27 88 52 117 9 10 15 20 13 22 -5 7 64 126 87 150 11
12 17 25 14 28 -12 11 32 4 82 -13z m269 -87 c3 -9 6 -94 6 -190 l0 -174 -32
0 c-37 0 -52 8 -61 30 -4 12 -6 11 -6 -2 -1 -10 -6 -18 -11 -18 -6 0 -3 15 6
33 29 54 44 127 51 235 5 88 8 102 23 102 10 0 21 -7 24 -16z m1481 -356 c71
-159 213 -386 293 -470 20 -21 33 -41 29 -44 -9 -9 -138 -31 -233 -39 -79 -7
-81 -7 -97 19 -28 43 -32 83 -11 109 16 18 16 19 2 8 -24 -18 -24 -18 -37 176
-6 89 -25 236 -41 327 -17 91 -30 169 -29 173 0 9 59 -113 124 -259z m996
-940 c93 -95 169 -181 169 -190 0 -10 -12 -24 -27 -32 -33 -16 -162 -45 -248
-55 l-60 -7 0 51 c0 27 -4 130 -9 228 -4 97 -5 177 -1 177 4 0 83 -78 176
-172z m-2698 -113 c44 -25 45 -26 35 -63 -5 -20 -12 -48 -15 -62 -2 -14 -11
-46 -19 -72 -15 -46 -17 -47 -62 -53 -26 -3 -59 -8 -74 -10 -15 -2 -30 0 -33
5 -3 5 21 66 55 134 33 69 60 130 60 136 0 14 1 13 53 -15z"/>
<path d="M4615 1045 c12 -35 55 -249 55 -272 0 -13 -4 -23 -9 -23 -5 0 -17
-23 -26 -51 -44 -132 -73 -177 -203 -317 -144 -155 -178 -190 -244 -250 -27
-23 -48 -45 -48 -48 0 -11 40 18 93 66 30 27 58 46 62 42 5 -4 5 -1 1 5 -4 8
3 23 16 36 13 13 45 47 71 76 42 45 51 50 65 39 15 -12 16 -11 3 5 -13 16 -8
24 50 80 38 36 71 79 80 102 9 22 21 39 27 37 7 -1 12 8 12 21 0 62 53 155 57
100 7 -109 15 -173 23 -198 5 -16 12 -55 14 -85 3 -30 6 -55 6 -55 3 0 9 -49
11 -87 1 -20 6 -35 11 -32 4 3 8 -1 8 -9 0 -7 11 -24 25 -37 13 -12 22 -27 19
-31 -3 -5 1 -7 8 -4 7 3 25 -5 40 -17 14 -13 35 -28 45 -35 14 -10 15 -14 5
-21 -11 -7 -11 -10 2 -15 9 -4 16 -11 16 -17 0 -6 -6 -8 -12 -5 -7 4 -5 0 5
-8 9 -8 17 -20 17 -27 0 -7 3 -11 6 -8 3 3 0 25 -6 48 -6 23 -9 44 -7 47 3 2
29 -9 58 -26 146 -81 292 -93 419 -34 113 52 209 130 321 262 69 80 140 193
139 218 -1 4 -15 -19 -32 -52 -38 -74 -114 -169 -205 -255 -87 -82 -101 -93
-166 -129 -176 -99 -305 -92 -512 25 -97 55 -148 94 -165 124 -9 18 -43 217
-65 385 -9 66 -23 158 -31 205 -26 143 -27 158 -12 136 35 -50 47 -59 25 -19
-13 26 -27 41 -35 38 -7 -3 -10 0 -7 5 3 5 -4 26 -15 47 -12 21 -18 29 -15 18z"/>
<path d="M3058 563 c-43 -15 -47 -19 -62 -67 -24 -77 -35 -165 -42 -338 -5
-117 -4 -158 4 -158 7 0 12 7 12 16 0 8 5 12 10 9 9 -6 11 4 14 73 1 9 5 20 9
23 4 3 9 26 11 50 6 78 19 143 33 157 7 8 11 18 8 23 -3 5 -3 25 1 45 4 22 10
31 14 24 5 -8 10 -9 14 -2 3 6 2 13 -4 17 -5 3 -10 12 -10 18 1 11 19 -14 22
-30 1 -5 10 -17 20 -27 9 -10 15 -23 12 -28 -3 -4 0 -8 6 -8 6 0 8 -6 4 -12
-4 -7 -4 -10 1 -6 11 10 37 -41 28 -56 -3 -6 -3 -8 2 -4 10 9 20 -5 70 -97 20
-38 46 -80 57 -92 11 -12 17 -26 13 -33 -3 -6 -2 -9 3 -8 6 2 10 0 11 -4 2
-12 40 -48 51 -48 16 0 12 15 -14 45 -14 16 -22 33 -19 38 3 6 1 7 -5 3 -7 -4
-14 3 -18 19 -3 14 -11 22 -17 18 -7 -4 -8 0 -3 13 4 10 4 15 0 11 -9 -9 -33
23 -34 46 0 10 -4 16 -9 13 -5 -3 -15 9 -22 27 -7 17 -50 92 -96 166 -46 73
-83 137 -83 141 0 4 17 14 38 23 48 20 30 20 -30 0z"/>
</g>
</svg>
